<svg version="1" xmlns="http://www.w3.org/2000/svg" width="933.333" height="933.333" viewBox="0 0 700.000000 700.000000"><path d="M0 349.7C0 518.2.3 656 .8 656.1c3.7.4 697.6.3 698.3-.2.5-.3.8-124.4.7-306.4l-.3-305.8-349.8-.1L0 43.5v306.2zM656.1 89.5c.4 9.3.3 522.5-.1 522.6-2.8.7-611.3.2-611.8-.5-.4-.7-.7-521-.3-523.6.1-.3 137.8-.5 306.1-.5 305.3 0 306 0 306.1 2z"/><path d="M88.3 131.9c-.5.3-.9 92.3-.8 218.7v218.2h262.2c200.7.1 262.2-.2 262.5-1.1.2-.7.4-99.1.4-218.7l-.1-217.5-261.6-.1c-143.9-.1-262.1.1-262.6.5zM214.2 219h4.7l-.1 20.8c-.1 11.5.1 21.3.4 21.8.4.5 9.7.9 21.7.9 13.5 0 21.1.3 21.2 1 .6 4.8.2 41.8-.4 42.2-1.1.7-41.6.8-42.2.1-.3-.3-.6-10.2-.6-21.9l-.1-21.4h-43.3l-.3-21.7-.2-21.7 4.2-.3c2.4-.2 10.2-.2 17.3-.1 7.2.1 15.1.2 17.7.3zm91.9 90.4c.1 4.5.1 34.6 0 37.8l-.1 2.8h-43.5v43.7H219l-.1-5.8v-20.4-16c.1-1.2 3.5-1.5 21.9-1.7l21.7-.3.1-21c.1-11.6.2-21.3.3-21.6 0-.3 9.8-.6 21.6-.6l21.5-.1.1 3.2zm-87.8 84.5c1.2.1.6 42.9-.7 43.4-.6.2-10.3.3-21.6.3l-20.5-.1-.3-21.7-.2-21.7 2.2-.3c1.8-.2 38.2-.1 41.1.1zm262.2.3c.5.4.8 23.6.6 37.8l-.1 5.5H350v-43.4l3.8-.3c6.1-.5 126.2-.1 126.7.4z"/></svg>